<svg xmlns="http://www.w3.org/2000/svg" width="31" height="31" viewBox="0 0 31 31" fill="none">
    <path d="M7.70364 14.122V19.2573M23.1095 11.5544V16.6896M21.8257 5.13525C24.9694 5.13525 26.6697 5.61638 27.5157 5.98956C27.6284 6.03926 27.6847 6.06411 27.8473 6.21928C27.9448 6.31229 28.1227 6.58519 28.1684 6.7119C28.2448 6.92328 28.2448 7.03883 28.2448 7.26992V21.0689C28.2448 22.2356 28.2448 22.819 28.0698 23.1188C27.8919 23.4238 27.7202 23.5656 27.3871 23.6829C27.0596 23.7981 26.3986 23.6711 25.0765 23.4171C24.1512 23.2393 23.0537 23.1087 21.8257 23.1087C17.9742 23.1087 14.1228 25.6764 8.98747 25.6764C5.84376 25.6764 4.14344 25.1953 3.29742 24.8221C3.18475 24.7724 3.12842 24.7475 2.96583 24.5924C2.86837 24.4994 2.69047 24.2265 2.64471 24.0997C2.56836 23.8884 2.56836 23.7728 2.56836 23.5417L2.56836 9.7427C2.56836 8.576 2.56836 7.99266 2.74332 7.69281C2.92128 7.3878 3.09292 7.24601 3.42603 7.12879C3.7535 7.01355 4.41454 7.14056 5.73661 7.39458C6.66198 7.57238 7.75946 7.70289 8.98747 7.70289C12.8389 7.70289 16.6904 5.13525 21.8257 5.13525ZM18.6161 15.4058C18.6161 17.1784 17.1792 18.6154 15.4066 18.6154C13.634 18.6154 12.197 17.1784 12.197 15.4058C12.197 13.6332 13.634 12.1963 15.4066 12.1963C17.1792 12.1963 18.6161 13.6332 18.6161 15.4058Z" stroke="#05101B" stroke-width="2" stroke-linecap="round" stroke-linejoin="round"/>
</svg>