<svg width="248" height="588" viewBox="0 0 248 588" fill="none" xmlns="http://www.w3.org/2000/svg">
<path d="M161.392 407.177C192.105 485.82 268.298 579.159 354.98 533.675C420.112 499.506 365.669 404.905 397.138 352.094C423.337 308.275 491.684 275.143 462.524 213.432C442.191 170.236 389.729 172.16 354.338 148.763C313.275 121.571 278.74 7.739 215.778 68.1121C140.953 139.868 129.118 275.805 150.222 371.708C152.728 382.733 156.473 394.741 161.392 407.177Z" fill="url(#paint0_linear_46_20769)"/>
<path opacity="0.62" d="M157.1 374.744C151.509 412.76 133.978 417.421 133.538 450.792C133.428 457.672 133.084 493.339 155.904 512.16C185.538 536.388 238.336 519.284 268.105 498.188C322.92 459.464 326.248 388.557 327.248 369.361C327.916 355.101 329.307 294.266 286.396 239.258C260.067 205.588 197.576 149.173 141.028 168.902C104.607 181.589 75.3642 223.901 84.0071 249.136C91.4015 270.856 121.571 264.009 143.212 294.109C164.629 323.729 158.835 363.4 157.1 374.744Z" fill="#B7D1E8"/>
<path d="M328.615 374.383C379.301 349.192 424.778 313.456 460.474 269.502C470.872 256.655 478.119 246.254 482.12 230.146C491.771 191.213 466.244 154.243 430.196 140.321C405.343 130.74 378.018 130.505 351.483 131.756C324.947 133.006 296.393 134.32 269.272 130.966C246.136 127.998 218.515 118.341 200.305 139.122C180.256 162.027 191.205 192.625 191.216 219.641C191.063 282.922 103.297 284.234 95.9257 342.492C84.6 432.443 207.911 415.73 259.971 401.019C283.571 394.309 306.52 385.366 328.615 374.383Z" fill="url(#paint1_linear_46_20769)"/>
<path d="M94.5792 450.713C93.2799 454.282 95.1197 458.229 98.6885 459.528C102.257 460.827 106.204 458.987 107.503 455.419C108.802 451.85 106.962 447.904 103.394 446.604C99.8249 445.305 95.8785 447.145 94.5792 450.713Z" fill="#E4EEF7"/>
<path d="M83.1069 421.92C82.2801 424.191 83.4508 426.703 85.7219 427.53C87.9929 428.356 90.5042 427.186 91.331 424.915C92.1579 422.644 90.9871 420.132 88.716 419.305C86.445 418.479 83.9337 419.649 83.1069 421.92Z" stroke="#E4EEF7" stroke-width="1.2727" stroke-miterlimit="10"/>
<path d="M70.3956 279.575C69.0963 283.144 70.9361 287.09 74.5049 288.389C78.0737 289.689 82.02 287.849 83.3193 284.28C84.6186 280.711 82.7788 276.765 79.21 275.466C75.6413 274.166 71.6949 276.006 70.3956 279.575Z" stroke="#E4EEF7" stroke-width="2" stroke-miterlimit="10"/>
<path d="M113.581 288.511C111.711 291.822 107.566 292.974 104.212 291.221C100.901 289.35 99.7492 285.205 101.502 281.852" stroke="#E4EEF7" stroke-width="2" stroke-miterlimit="10"/>
<path d="M71.3148 364.403L77.6198 358.049L71.7151 351.242L78.1376 344.932L72.1901 338.242L78.5379 331.771L72.5904 325.082" stroke="#E4EEF7" stroke-width="3.0845" stroke-miterlimit="10"/>
<path d="M109.908 425.424L114.438 423.214L118.808 421.079L118.475 426.015L118.142 430.95L113.988 428.107L109.908 425.424Z" stroke="#E4EEF7" stroke-miterlimit="10"/>
<path d="M82.7896 308.037L86.9034 305.144L88.7746 300.37L91.6679 304.483L96.4422 306.355L92.3284 309.248L90.4572 314.022L87.5639 309.908L82.7896 308.037Z" fill="#E4EEF7"/>
<defs>
<linearGradient id="paint0_linear_46_20769" x1="360.074" y1="87.971" x2="205" y2="513.915" gradientUnits="userSpaceOnUse">
<stop stop-color="#959EC2"/>
<stop offset="1" stop-color="#D9E5FA"/>
</linearGradient>
<linearGradient id="paint1_linear_46_20769" x1="455.302" y1="35.1225" x2="223.313" y2="349.249" gradientUnits="userSpaceOnUse">
<stop offset="2.34751e-07" stop-color="#E9B7D4"/>
<stop offset="0.9995" stop-color="#C0B9DB"/>
</linearGradient>
</defs>
</svg>
