<svg width="352" height="273" viewBox="0 0 352 273" fill="none" xmlns="http://www.w3.org/2000/svg">
<path d="M276.982 176.39C322.49 136.357 366.742 62.0363 314.771 14.7332C275.726 -20.8115 225.281 39.1477 181.927 30.8898C145.934 23.9784 106.799 -13.9898 72.3312 20.8368C48.186 45.1615 62.368 80.0779 55.277 109.698C47.0191 144.076 -21.2877 195.329 34.9016 222.975C101.683 255.826 196.289 230.425 255.799 192.636C262.621 188.238 269.802 182.762 276.982 176.39Z" fill="url(#paint0_linear_46_20605)"/>
<path opacity="0.62" d="M256.158 187.25C283.176 181.685 290.626 192.367 313.245 184.468C317.912 182.852 342.058 174.325 349.149 154.309C358.214 128.368 333.71 96.9526 312.168 82.0526C272.584 54.5863 223.934 69.7556 210.74 73.7948C200.956 76.8466 159.577 90.849 133.008 133.305C116.762 159.335 94.0528 215.345 121.25 248.646C138.753 270.098 174.477 279.433 189.377 267.405C202.213 257.083 190.185 238.413 205.175 216.422C219.895 194.7 248.08 188.866 256.158 187.25Z" fill="#B7D1E8"/>
<path d="M213.791 71.6406C184.35 43.6357 149.075 21.7344 110.658 8.45007C99.4379 4.59042 90.6415 2.25668 78.7933 3.51331C50.1601 6.56512 31.4902 32.8646 30.9516 60.6002C30.5926 79.7189 37.145 98.2093 44.5052 115.802C51.8655 133.395 59.7643 152.334 64.1625 171.453C67.8426 187.789 68.1119 208.793 86.6023 215.973C106.978 223.872 124.93 208.972 143.151 202.33C185.876 186.891 208.316 245.773 249.426 236.439C312.885 221.987 271.327 142.909 248.618 111.404C238.295 97.1322 226.627 83.8478 213.791 71.6406Z" fill="url(#paint1_linear_46_20605)"/>
<path d="M36.0675 159.874C29.6946 167.593 39.7476 181.326 49.8904 174.774C63.8929 166.157 45.7615 146.59 36.0675 159.874Z" fill="#E4EEF7"/>
<path d="M23.1434 131.061C11.3849 149.911 48.9941 162.836 47.7374 138.96C47.5579 126.573 30.2344 120.559 23.1434 131.061Z" fill="#E4EEF7"/>
<path d="M232.283 41.9302C231.206 40.5838 229.949 39.3272 228.513 38.2501C226.359 36.7242 223.936 35.4675 221.333 34.8392C216.845 33.6724 212.357 34.929 207.869 34.1212C205.984 33.7621 203.65 33.1338 201.945 32.1465C198.623 30.082 188.929 11.053 181.569 20.2085C178.966 23.3501 177.889 27.7483 178.697 31.7874C179.415 35.0188 181.479 38.0706 185.07 38.3398C186.775 38.4296 188.57 37.9808 190.276 37.7115C191.622 37.532 195.033 36.2754 196.29 37.0832C199.701 39.417 205.176 56.2019 212.716 61.767C217.024 64.9983 222.858 66.255 227.885 63.9212C232.732 61.767 235.604 56.92 235.604 51.714C235.604 48.0338 234.348 44.7127 232.283 41.9302Z" fill="#D2E2F1" fill-opacity="0.59"/>
<path d="M322.759 210.767C325.486 210.767 327.696 208.557 327.696 205.831C327.696 203.104 325.486 200.894 322.759 200.894C320.033 200.894 317.822 203.104 317.822 205.831C317.822 208.557 320.033 210.767 322.759 210.767Z" fill="#E4EEF7"/>
<path d="M306.153 225.578C307.888 225.578 309.295 224.171 309.295 222.436C309.295 220.701 307.888 219.294 306.153 219.294C304.418 219.294 303.012 220.701 303.012 222.436C303.012 224.171 304.418 225.578 306.153 225.578Z" stroke="#E4EEF7" stroke-width="1.2727" stroke-miterlimit="10"/>
<path d="M213.253 269.111C215.98 269.111 218.19 266.901 218.19 264.174C218.19 261.448 215.98 259.237 213.253 259.237C210.527 259.237 208.316 261.448 208.316 264.174C208.316 266.901 210.527 269.111 213.253 269.111Z" stroke="#E4EEF7" stroke-width="2" stroke-miterlimit="10"/>
<path d="M208.674 237.785C211.367 238.234 213.162 240.747 212.803 243.44C212.354 246.133 209.841 247.928 207.148 247.569" stroke="#E4EEF7" stroke-width="2" stroke-miterlimit="10"/>
<path d="M270.25 247.658L264.416 244.966L261.274 250.621L255.44 247.838L252.388 253.493L246.464 250.8L243.412 256.455" stroke="#E4EEF7" stroke-width="3.0845" stroke-miterlimit="10"/>
<path d="M301.935 206.638L299.332 204.125L296.818 201.702L300.229 200.714L303.64 199.727L302.742 203.228L301.935 206.638Z" stroke="#E4EEF7" stroke-miterlimit="10"/>
<path d="M5.90942 156.912C8.63591 156.912 10.8462 154.702 10.8462 151.975C10.8462 149.249 8.63591 147.038 5.90942 147.038C3.18292 147.038 0.972656 149.249 0.972656 151.975C0.972656 154.702 3.18292 156.912 5.90942 156.912Z" fill="#E4EEF7"/>
<path d="M23.4131 164.541C25.1481 164.541 26.5546 163.135 26.5546 161.4C26.5546 159.665 25.1481 158.258 23.4131 158.258C21.678 158.258 20.2715 159.665 20.2715 161.4C20.2715 163.135 21.678 164.541 23.4131 164.541Z" stroke="#E4EEF7" stroke-width="1.2727" stroke-miterlimit="10"/>
<path d="M15.2441 162.028L15.1544 169.209L15.0646 176.39L8.87121 172.709L2.76758 169.029L8.96097 165.529L15.2441 162.028Z" stroke="#E4EEF7" stroke-width="2.0193" stroke-miterlimit="10"/>
<path d="M229.41 253.762L226.448 251.698L222.768 251.608L224.832 248.646L224.922 244.966L227.884 247.03L231.564 247.12L229.5 250.082L229.41 253.762Z" fill="#E4EEF7"/>
<path d="M214.779 10.8735C217.505 10.8735 219.715 8.66326 219.715 5.93676C219.715 3.21026 217.505 1 214.779 1C212.052 1 209.842 3.21026 209.842 5.93676C209.842 8.66326 212.052 10.8735 214.779 10.8735Z" stroke="#E4EEF7" stroke-width="2" stroke-miterlimit="10"/>
<path d="M233.271 25.4145C230.758 26.5813 227.885 25.5042 226.718 22.991C225.552 20.4777 226.629 17.6054 229.142 16.4385" stroke="#E4EEF7" stroke-width="2" stroke-miterlimit="10"/>
<path d="M207.148 23.6193H210.739L213.791 21.7344V25.3247L215.765 28.3766H212.085L209.033 30.3513L209.123 26.6711L207.148 23.6193Z" fill="#E4EEF7"/>
<defs>
<linearGradient id="paint0_linear_46_20605" x1="12.8596" y1="120.759" x2="338.275" y2="120.759" gradientUnits="userSpaceOnUse">
<stop stop-color="#959EC2"/>
<stop offset="1" stop-color="#D9E5FA"/>
</linearGradient>
<linearGradient id="paint1_linear_46_20605" x1="-46.1783" y1="69.5005" x2="222.698" y2="148.847" gradientUnits="userSpaceOnUse">
<stop offset="2.34751e-07" stop-color="#E9B7D4"/>
<stop offset="0.9995" stop-color="#C0B9DB"/>
</linearGradient>
</defs>
</svg>
