<svg width="287" height="414" viewBox="0 0 287 414" fill="none" xmlns="http://www.w3.org/2000/svg">
<path d="M411.683 141.74C396.483 156.46 373.45 168.288 360.223 182.34C348.592 194.793 341.521 209.357 334.283 223.695C332.325 227.626 330.51 231.544 328.695 235.461C312.386 270.958 296.468 309.078 260.917 333.199C229.322 354.532 185.001 361.099 147.273 351.09C109.545 341.082 79.3636 315.377 66.2775 284.324C55.9819 259.78 56.2512 231.587 68.8014 207.201C81.4846 182.682 106.782 162.422 137.16 154.501C172.506 145.269 214.123 151.77 243.303 132.597C262.198 120.069 269.142 101.044 283.399 85.5652C291.973 76.1794 302.987 68.0158 316.114 63.7648C344.916 54.5406 387.744 63.1043 409.786 79.5373C419.476 86.73 425.709 97.3894 426.597 108.428C427.975 121.597 421.41 132.246 411.683 141.74Z" fill="url(#paint0_linear_46_44083)"/>
<path opacity="0.56" d="M447.961 359.174C426.724 365.357 409.25 341.7 392.448 333.366C374.436 324.495 358.306 320.193 342.849 320.059C312.202 319.925 290.83 344.119 273.087 366.029C253.328 390.358 231.956 412.402 198.084 413.209C190.691 413.343 180.341 411.999 173.62 404.472C161.792 391.299 166.496 372.884 170.125 357.695C181.147 310.515 190.96 236.856 133.161 215.887C124.29 212.661 115.15 209.301 109.504 202.043C81.8147 166.154 118.241 139.808 150.098 128.383C181.954 116.958 217.708 109.968 247.145 91.2846C278.464 71.3912 292.174 30.1258 328.601 17.3564C339.085 13.7272 349.166 14.6681 356.29 19.9103C365.296 26.4966 369.597 38.1907 372.017 46.2556C382.77 82.01 353.467 117.361 366.371 152.847C374.705 175.832 396.346 191.558 416.374 204.059C449.574 224.624 475.382 247.072 476.054 289.412C476.323 310.381 471.081 331.081 460.999 347.883C457.773 353.259 454.279 356.754 450.112 358.367C449.44 358.636 448.633 358.905 447.961 359.174Z" fill="#7FACD6"/>
<path d="M178.054 142.631C177.517 119.781 178.458 95.7203 187.06 74.0795C194.991 54.3205 214.75 31.0667 237.869 29.8569C252.789 29.0505 260.182 47.4653 269.053 56.3367C325.642 113.463 413.012 76.3645 477.934 111.85C489.36 118.033 499.575 127.98 502.935 140.884C506.43 154.325 501.86 168.573 495.543 180.939C480.623 209.973 457.369 231.614 433.712 253.389C412.877 272.476 376.854 292.369 374.435 323.957C373.494 336.726 383.306 347.614 385.994 359.577C392.85 390.896 358.977 411.192 332.228 413.612C301.178 416.435 268.247 403.934 247.144 380.277C219.589 349.361 211.389 281.482 161.79 276.24C156.951 275.702 151.575 275.971 147.677 273.148C142.031 269.116 141.628 260.379 144.719 254.196C149.29 244.787 157.354 238.066 163.134 229.463C179.667 204.328 178.726 173.278 178.054 142.631Z" fill="url(#paint1_linear_46_44083)"/>
<path d="M103.107 110.007C90.999 96.4781 68.8843 99.0581 53.5394 104.42C30.3922 112.429 -1.83352 131.507 10.4756 160.951C12.0153 164.562 14.1439 168.052 16.7056 170.963C23.4907 178.897 33.5239 183.524 43.7403 184.862C52.4589 186.077 62.2518 185.354 70.2107 181.08C74.7486 178.675 78.2655 174.884 79.6183 169.819C80.2773 167.352 80.4863 164.486 80.3661 161.81C80.1419 159.524 78.4376 156.008 80.2307 153.983C83.2192 150.608 89.1929 152.203 93.159 150.897C98.502 149.124 103.586 145.196 106.567 140.287C112.493 130.601 110.766 118.314 103.107 110.007Z" fill="url(#paint2_linear_46_44083)"/>
<defs>
<linearGradient id="paint0_linear_46_44083" x1="-30.0155" y1="443.39" x2="325.056" y2="-21.4302" gradientUnits="userSpaceOnUse">
<stop stop-color="#7FACD6"/>
<stop offset="1" stop-color="#E9B7D4"/>
</linearGradient>
<linearGradient id="paint1_linear_46_44083" x1="170.821" y1="178.728" x2="525.391" y2="313.476" gradientUnits="userSpaceOnUse">
<stop offset="2.54313e-07" stop-color="#E9B7D4"/>
<stop offset="1" stop-color="#7FACD6"/>
</linearGradient>
<linearGradient id="paint2_linear_46_44083" x1="32.4814" y1="111.532" x2="85.6229" y2="167.521" gradientUnits="userSpaceOnUse">
<stop offset="2.54313e-07" stop-color="#E9B7D4"/>
<stop offset="1" stop-color="#7FACD6"/>
</linearGradient>
</defs>
</svg>
