<svg width="381" height="363" viewBox="0 0 381 363" fill="none" xmlns="http://www.w3.org/2000/svg">
<path opacity="0.52" d="M329.584 210.681C328.85 205.046 327.657 199.411 325.914 193.993C312.701 152.706 273.245 141.653 242.048 126.807C205.07 109.253 173.689 78.5857 135.059 65.257C99.2737 52.9036 53.9457 47.2687 25.2258 81.4032C3.8464 106.76 9.62708 143.279 34.6768 161.159C48.9909 171.345 75.7839 177.196 76.1509 202.012C76.3345 215.34 73.2147 229.102 71.3796 242.106C67.7093 268.655 63.7637 302.79 84.2256 321.645C105.054 340.933 132.306 348.411 158.457 346.027C180.846 343.968 200.482 330.314 220.118 318.611C229.844 312.867 239.845 307.341 250.398 303.982C261.959 300.297 273.887 300.839 285.449 297.155C316.83 287.185 334.172 247.524 329.584 210.681Z" fill="#F9DABE"/>
<path d="M375.593 51.2068C369.317 36.1187 357.438 24.4717 342.869 23.0158C332.447 21.957 322.136 26.1923 312.835 31.8834C293.783 43.398 276.076 60.0743 254.559 64.4419C243.464 66.6919 236.18 60.339 232.93 48.4274C229.792 36.9128 225.981 23.9423 219.257 14.6777C197.18 -15.7632 144.956 6.07486 129.602 35.4569C110.102 72.6477 163.783 123.206 127.585 151.265C104.835 168.867 68.5248 165.559 54.8524 197.72C41.18 229.749 61.6886 262.837 85.8954 277.131C129.826 302.94 182.611 285.866 217.688 248.411C244.136 220.22 265.878 187 297.817 166.75C329.309 146.765 373.576 136.574 380.076 87.2064C381.869 74.3683 379.964 61.7949 375.593 51.2068Z" fill="url(#paint0_linear_46_20635)"/>
<path d="M349.677 178.063C345.823 169.828 340.593 162.242 334.17 155.74C313.433 134.935 285.906 126.699 259.847 120.631C250.487 118.463 241.312 110.553 245.257 98.0911C248.194 89.097 252.139 81.5115 249.845 71.3254C241.312 33.94 195.25 44.9931 176.256 60.9225C167.631 68.1828 160.107 78.1523 149.922 82.3784C136.617 87.905 121.11 84.2206 107.255 86.4962C92.3901 88.9886 78.7183 97.766 69.8179 112.07C59.7246 128.433 61.7433 151.189 71.1025 167.227C86.0589 192.692 109.549 213.39 129.643 232.895C153.592 256.193 180.11 282.634 209.013 296.396C236.816 309.616 270.124 312.976 298.293 299.43C323.71 287.185 345.089 263.67 353.806 232.353C359.22 213.606 357.201 194.426 349.677 178.063Z" fill="url(#paint1_linear_46_20635)"/>
<path d="M40.8235 185.432C37.2449 173.837 27.3351 161.484 16.2325 161.05C0.909096 160.4 -3.58698 180.447 2.83602 194.101C7.97441 204.937 16.6914 212.956 22.9308 222.817C28.3445 231.378 37.0614 231.053 41.0987 221.3C45.0443 211.764 44.6772 197.677 40.8235 185.432Z" fill="url(#paint2_linear_46_20635)"/>
<path d="M60.6429 254.784C60.3676 253.484 59.9088 252.184 59.2665 250.992C58.716 249.908 57.8901 248.716 57.0643 247.849C55.4127 246.224 54.2199 245.357 52.1095 244.49C50.9166 243.948 49.7238 243.948 48.5309 243.731C45.4112 243.406 41.5574 246.007 40.2728 249.366C39.3552 251.534 38.8047 253.484 38.8047 255.976C38.8047 256.952 38.9882 258.36 39.1717 259.336C39.3552 260.419 39.814 261.611 40.3646 262.587C41.3739 264.537 42.6585 266.271 44.4018 267.463C46.237 268.763 48.0721 269.197 50.1825 269.305C51.3754 269.305 52.5682 269.088 53.7611 268.547C54.7704 268.221 55.688 267.788 56.5138 267.029C57.1561 266.488 57.7066 265.946 58.3489 265.296C59.2665 264.32 59.9088 263.128 60.2758 261.828C61.0099 259.552 61.1934 257.277 60.6429 254.784Z" fill="url(#paint3_linear_46_20635)"/>
<path d="M339.493 70.6751C338.392 67.5325 336.19 65.2569 333.162 65.7987C330.593 66.2322 327.84 69.158 328.115 72.5173C329.033 81.6198 330.776 90.0721 329.859 99.3914C329.033 108.494 326.463 117.271 322.701 125.182C319.765 131.25 327.289 136.343 330.593 130.6C335.547 121.931 339.034 112.178 340.502 101.884C341.879 92.2394 342.613 80.1027 339.493 70.6751Z" fill="url(#paint4_linear_46_20635)"/>
<path d="M351.053 136.994C345.273 134.61 336.281 132.984 330.959 137.21C328.481 139.161 329.674 142.954 332.335 143.387C334.996 143.82 337.565 143.062 340.226 143.387C343.071 143.712 345.915 144.687 348.484 146.096C352.43 148.372 356.375 154.982 361.055 154.548C362.248 154.44 363.349 153.682 363.624 152.164C365.551 144.254 356.008 139.161 351.053 136.994Z" fill="url(#paint5_linear_46_20635)"/>
<path d="M354.909 116.621C354.266 115.429 353.074 114.454 351.881 114.021C350.688 113.479 349.312 113.479 348.027 114.129H347.935C346.284 113.912 344.632 115.429 343.806 116.946C342.705 118.897 342.43 121.498 342.98 123.773C343.714 126.916 346.467 129.516 349.22 129.408C354.45 129.083 357.753 121.714 354.909 116.621Z" fill="url(#paint6_linear_46_20635)"/>
<path d="M291.87 318.611C291.044 314.818 288.291 312.434 284.988 312.434C281.042 312.434 278.29 316.552 275.629 319.369C270.674 324.571 264.618 328.255 258.195 330.314C250.946 332.698 243.33 332.481 235.898 333.24C218.923 334.973 202.315 342.125 191.212 357.838C189.928 359.68 191.12 362.714 193.323 362.064C207.545 357.513 220.942 349.711 235.99 349.386C251.313 349.061 265.627 348.41 278.932 338.224C283.887 334.323 293.705 327.063 291.87 318.611Z" fill="url(#paint7_linear_46_20635)"/>
<path d="M107.255 44.7762C103.86 40.1166 98.8129 37.6242 93.7663 36.2155C89.8208 35.1319 83.1225 33.5064 79.7275 36.5406C78.5346 37.6242 77.9841 39.2497 78.7182 40.8751C80.7368 45.1013 86.2422 46.7267 90.0043 48.4606C94.5921 50.6278 99.547 52.47 104.594 52.0366C107.897 51.8198 109.365 47.5937 107.255 44.7762Z" fill="url(#paint8_linear_46_20635)"/>
<path d="M120.376 20.5028C116.889 19.5276 113.953 25.7043 112.852 28.6301C111.017 33.2897 110.466 37.5159 111.751 42.5006C112.21 44.3428 114.504 44.3428 114.962 42.5006C116.155 37.7326 117.623 32.8563 120.101 28.7385C121.385 26.6796 124.322 21.5865 120.376 20.5028Z" fill="url(#paint9_linear_46_20635)"/>
<defs>
<linearGradient id="paint0_linear_46_20635" x1="418.512" y1="23.3167" x2="-3.4563" y2="167.903" gradientUnits="userSpaceOnUse">
<stop stop-color="#F9DABE"/>
<stop offset="1" stop-color="#E9B7D4"/>
</linearGradient>
<linearGradient id="paint1_linear_46_20635" x1="63.1886" y1="177.259" x2="356.896" y2="177.259" gradientUnits="userSpaceOnUse">
<stop stop-color="#FFB55C"/>
<stop offset="0.3018" stop-color="#F8B680"/>
<stop offset="1" stop-color="#E9B7D4"/>
</linearGradient>
<linearGradient id="paint2_linear_46_20635" x1="41.1784" y1="186.344" x2="4.35209" y2="198.962" gradientUnits="userSpaceOnUse">
<stop stop-color="#F9DABE"/>
<stop offset="1" stop-color="#E9B7D4"/>
</linearGradient>
<linearGradient id="paint3_linear_46_20635" x1="59.6998" y1="251.606" x2="38.8746" y2="258.741" gradientUnits="userSpaceOnUse">
<stop stop-color="#F9DABE"/>
<stop offset="1" stop-color="#E9B7D4"/>
</linearGradient>
<linearGradient id="paint4_linear_46_20635" x1="346.651" y1="91.5955" x2="313.218" y2="103.051" gradientUnits="userSpaceOnUse">
<stop stop-color="#F9DABE"/>
<stop offset="1" stop-color="#E9B7D4"/>
</linearGradient>
<linearGradient id="paint5_linear_46_20635" x1="360.562" y1="138.917" x2="332.332" y2="148.59" gradientUnits="userSpaceOnUse">
<stop stop-color="#F9DABE"/>
<stop offset="1" stop-color="#E9B7D4"/>
</linearGradient>
<linearGradient id="paint6_linear_46_20635" x1="355.647" y1="118.356" x2="342.703" y2="122.791" gradientUnits="userSpaceOnUse">
<stop stop-color="#F9DABE"/>
<stop offset="1" stop-color="#E9B7D4"/>
</linearGradient>
<linearGradient id="paint7_linear_46_20635" x1="291.588" y1="317.614" x2="188.185" y2="353.044" gradientUnits="userSpaceOnUse">
<stop stop-color="#F9DABE"/>
<stop offset="1" stop-color="#E9B7D4"/>
</linearGradient>
<linearGradient id="paint8_linear_46_20635" x1="105.247" y1="38.0835" x2="80.7388" y2="46.4811" gradientUnits="userSpaceOnUse">
<stop stop-color="#F9DABE"/>
<stop offset="1" stop-color="#E9B7D4"/>
</linearGradient>
<linearGradient id="paint9_linear_46_20635" x1="124.354" y1="28.3227" x2="108.614" y2="33.7157" gradientUnits="userSpaceOnUse">
<stop stop-color="#F9DABE"/>
<stop offset="1" stop-color="#E9B7D4"/>
</linearGradient>
</defs>
</svg>
