<svg width="329" height="581" viewBox="0 0 329 581" fill="none" xmlns="http://www.w3.org/2000/svg">
<path d="M79.1765 431.493C155.265 456.167 269.418 456.317 288.088 365.471C302.121 297.215 200.094 280.362 180.258 225.6C163.853 180.097 180.576 110.106 117.834 94.4531C73.9627 83.4393 43.8924 123.056 5.50073 134.964C-39.0757 148.752 -143.256 105.763 -136.776 188.154C-129.068 286.071 -36.5066 376.321 46.4687 418.398C56.0556 423.177 67.1067 427.637 79.1765 431.493Z" fill="url(#paint0_linear_46_44036)"/>
<path opacity="0.62" d="M52.8224 415.178C77.3392 442.089 70.2365 457.739 94.4387 478.087C99.4166 482.296 125.36 503.952 152.852 498.515C188.398 491.327 207.541 442.354 209.938 407.869C214.441 344.445 164.452 299.455 150.979 287.202C140.924 278.155 97.1574 240.63 31.0776 239.08C-9.40739 238.179 -88.2682 250.141 -107.737 303.44C-120.29 337.755 -106.817 384.585 -83.1298 393.391C-62.7685 401.003 -49.6841 374.776 -14.6294 376.972C19.9382 379.044 45.5467 407.098 52.8224 415.178Z" fill="#B7D1E8"/>
<path d="M155.478 289.214C167.425 236.937 168.515 182.15 157.71 129.604C154.531 114.271 151.254 102.716 141.846 90.1167C119.093 59.6785 76.6695 56.2087 44.8313 74.2826C22.8927 86.7551 6.32334 106.648 -8.68318 126.852C-23.6897 147.057 -39.8613 168.78 -58.595 186.651C-74.6547 201.833 -98.309 216.289 -94.0013 242.11C-89.2387 270.554 -60.2356 280.888 -40.4225 297.092C5.88122 335.177 -45.8231 400.311 -7.53442 440.675C51.6172 502.956 113.361 402.52 133.815 355.524C143.058 334.196 150.272 312.004 155.478 289.214Z" fill="url(#paint1_linear_46_44036)"/>
<path d="M201.653 290.182C202.455 288.053 203.035 285.78 203.29 283.425C203.57 279.952 203.363 276.355 202.323 272.978C200.623 267.099 196.174 262.852 194.067 257.215C193.205 254.834 192.346 251.762 192.317 249.162C192.423 244.002 207.487 220.181 192.138 217.996C186.82 217.159 181.103 218.899 177.063 222.537C173.88 225.529 171.807 229.928 173.92 234.184C174.968 236.18 176.686 237.915 178.141 239.669C179.251 241.076 182.975 244.1 182.905 246.07C182.555 251.513 167.195 269.034 165.959 281.34C165.194 288.406 167.699 295.874 173.734 300.006C179.444 304.055 186.879 304.049 192.787 300.542C196.964 298.063 199.886 294.4 201.653 290.182Z" fill="#D2E2F1" fill-opacity="0.59"/>
<path d="M71.0018 506.602C72.8386 509.696 76.8359 510.716 79.9301 508.879C83.0242 507.042 84.0435 503.045 82.2067 499.951C80.3699 496.856 76.3726 495.837 73.2784 497.674C70.1843 499.511 69.165 503.508 71.0018 506.602Z" fill="#E4EEF7"/>
<path d="M43.0076 497.735C44.1764 499.704 46.7202 500.353 48.6892 499.184C50.6582 498.015 51.3068 495.471 50.1379 493.502C48.969 491.533 46.4253 490.885 44.4563 492.054C42.4873 493.222 41.8387 495.766 43.0076 497.735Z" stroke="#E4EEF7" stroke-width="1.2727" stroke-miterlimit="10"/>
<path d="M61.658 480.189L62.7566 475.541L63.8137 471.057L67.2321 474.262L70.6504 477.468L66.0731 478.808L61.658 480.189Z" stroke="#E4EEF7" stroke-miterlimit="10"/>
<path d="M225.105 249.397C226.942 252.491 230.939 253.51 234.034 251.673C237.128 249.836 238.147 245.839 236.31 242.745C234.473 239.651 230.476 238.631 227.382 240.468C224.288 242.305 223.269 246.302 225.105 249.397Z" stroke="#E4EEF7" stroke-width="2" stroke-miterlimit="10"/>
<path d="M221.061 280.176C218.043 278.11 217.331 274.125 219.397 271.108C221.463 268.09 225.448 267.378 228.465 269.444" stroke="#E4EEF7" stroke-width="2" stroke-miterlimit="10"/>
<path d="M205.502 249.325L207.92 253.399L212.115 255.593L208.041 258.012L205.908 262.308L203.429 258.132L199.132 255.999L203.369 253.622L205.502 249.325Z" fill="#E4EEF7"/>
<defs>
<linearGradient id="paint0_linear_46_44036" x1="-35.6266" y1="94.2781" x2="183.601" y2="463.572" gradientUnits="userSpaceOnUse">
<stop stop-color="#959EC2"/>
<stop offset="1" stop-color="#D9E5FA"/>
</linearGradient>
<linearGradient id="paint1_linear_46_44036" x1="-17.2303" y1="-7.25139" x2="73.8615" y2="351.334" gradientUnits="userSpaceOnUse">
<stop offset="2.34751e-07" stop-color="#E9B7D4"/>
<stop offset="0.9995" stop-color="#C0B9DB"/>
</linearGradient>
</defs>
</svg>
