<svg width="241" height="444" viewBox="0 0 241 444" fill="none" xmlns="http://www.w3.org/2000/svg">
<path d="M92.5137 152.01C76.2123 167.798 51.5106 180.482 37.3256 195.553C24.8514 208.908 17.2679 224.527 9.5058 239.905C7.4051 244.12 5.45899 248.322 3.5129 252.523C-13.9779 290.592 -31.0494 331.475 -69.177 357.344C-103.062 380.222 -150.593 387.265 -191.056 376.531C-231.518 365.798 -263.886 338.23 -277.921 304.927C-288.962 278.604 -288.673 248.368 -275.214 222.215C-261.611 195.92 -234.481 174.192 -201.901 165.697C-163.995 155.795 -119.362 162.768 -88.0676 142.206C-67.803 128.77 -60.3555 108.366 -45.066 91.7653C-35.8709 81.6994 -24.0579 72.9442 -9.98054 68.3852C20.9089 58.4926 66.8404 67.6768 90.4802 85.3006C100.872 93.0146 107.556 104.446 108.508 116.285C109.986 130.408 102.946 141.829 92.5137 152.01Z" fill="url(#paint0_linear_46_20756)"/>
<path opacity="0.56" d="M131.421 385.201C108.644 391.832 89.9043 366.46 71.8849 357.523C52.5681 348.009 35.2695 343.396 18.6917 343.251C-14.1757 343.107 -37.0964 369.055 -56.1249 392.552C-77.3157 418.645 -100.236 442.286 -136.563 443.151C-144.492 443.295 -155.592 441.854 -162.8 433.781C-175.485 419.654 -170.44 399.904 -166.548 383.615C-154.727 333.016 -144.204 254.019 -206.19 231.531C-215.705 228.071 -225.507 224.468 -231.562 216.683C-261.258 178.194 -222.192 149.939 -188.027 137.686C-153.862 125.433 -115.517 117.937 -83.9468 97.8994C-50.3587 76.5645 -35.6548 32.3088 3.41119 18.6141C14.6553 14.7219 25.4669 15.731 33.1071 21.353C42.7656 28.4166 47.3785 40.9581 49.9733 49.6074C61.5057 87.9527 30.0799 125.866 43.9188 163.922C52.8564 188.573 76.0654 205.439 97.5445 218.846C133.151 240.901 160.829 264.975 161.549 310.384C161.838 332.872 156.216 355.072 145.404 373.092C141.944 378.858 138.196 382.606 133.727 384.336C133.007 384.624 132.142 384.912 131.421 385.201Z" fill="#7FACD6"/>
<path d="M-158.042 152.967C-158.619 128.46 -157.61 102.656 -148.384 79.4475C-139.879 58.2567 -118.688 33.3178 -93.8933 32.0204C-77.8921 31.1555 -69.9636 50.9048 -60.4494 60.419C0.239944 121.685 93.9408 81.8981 163.568 119.955C175.821 126.586 186.777 137.254 190.381 151.093C194.129 165.508 189.227 180.788 182.452 194.051C166.451 225.188 141.512 248.397 116.141 271.75C93.7966 292.22 55.1631 313.555 52.5683 347.432C51.5592 361.127 62.0825 372.803 64.9656 385.633C72.3175 419.221 35.9904 440.988 7.30356 443.583C-25.9963 446.611 -61.3143 433.204 -83.9466 407.833C-113.498 374.677 -122.292 301.879 -175.485 296.257C-180.675 295.68 -186.441 295.968 -190.621 292.941C-196.676 288.617 -197.108 279.246 -193.793 272.615C-188.892 262.524 -180.242 255.317 -174.044 246.091C-156.312 219.134 -157.322 185.834 -158.042 152.967Z" fill="url(#paint1_linear_46_20756)"/>
<path d="M149.009 41.1023C148.288 40.2374 147.567 39.5166 146.847 38.7958C145.549 37.6426 144.252 36.4893 143.531 34.9036C142.234 31.8764 143.819 28.5608 143.243 25.3894C142.666 21.9297 140.648 18.4699 138.197 15.8751C126.232 3.91027 106.339 9.38816 93.365 16.5959C83.13 22.218 77.508 31.4439 79.6703 43.1205C81.5443 52.923 88.0313 62.7256 96.8248 67.6268C97.2572 67.9151 97.6897 68.0593 98.1221 68.3476C100.573 69.645 103.168 70.7982 105.186 72.8164C107.492 75.267 109.222 78.5826 111.817 80.8891C113.979 82.9073 117.006 84.3488 119.745 85.0696C126.665 86.7995 133.873 84.493 139.927 81.4657C147.856 77.5735 153.91 70.0775 155.208 61.284C156.217 54.0762 153.622 46.5802 149.009 41.1023Z" fill="url(#paint2_linear_46_20756)"/>
<path d="M176.829 18.3258C176.685 17.8933 176.397 17.605 176.109 17.3167C175.676 16.5959 175.1 15.8752 174.523 15.2986C172.216 12.8479 168.757 11.4064 165.441 11.2622C165.441 11.2622 165.441 11.2622 165.297 11.2622C165.153 11.2622 165.153 11.2622 165.009 11.2622H164.865C163.711 11.2622 162.414 11.4064 161.405 11.5505C158.954 12.1271 156.504 13.4245 154.774 15.1544C151.602 18.47 150.161 23.0829 151.17 27.5517C151.458 29.1374 152.179 30.579 153.044 31.8764C153.044 31.8764 153.044 31.8764 153.044 32.0205C155.783 37.2101 162.126 40.0932 167.892 38.6517C173.802 37.2101 178.271 32.0205 178.415 25.8219C178.703 23.2271 178.127 20.4881 176.829 18.3258Z" fill="url(#paint3_linear_46_20756)"/>
<path d="M145.404 0.162218C138.628 1.89208 141.223 12.4154 147.998 10.6855C154.774 9.09983 152.179 -1.42349 145.404 0.162218Z" fill="url(#paint4_linear_46_20756)"/>
<path d="M192.111 273.624C203.257 273.624 212.293 264.589 212.293 253.443C212.293 242.297 203.257 233.261 192.111 233.261C180.965 233.261 171.93 242.297 171.93 253.443C171.93 264.589 180.965 273.624 192.111 273.624Z" stroke="url(#paint5_linear_46_20756)" stroke-width="3" stroke-miterlimit="10"/>
<path d="M217.481 290.346C222.258 290.346 226.131 286.474 226.131 281.697C226.131 276.92 222.258 273.048 217.481 273.048C212.704 273.048 208.832 276.92 208.832 281.697C208.832 286.474 212.704 290.346 217.481 290.346Z" stroke="url(#paint6_linear_46_20756)" stroke-width="1.2857" stroke-miterlimit="10"/>
<path d="M233.338 269.588C237 269.588 239.969 266.619 239.969 262.957C239.969 259.295 237 256.326 233.338 256.326C229.676 256.326 226.707 259.295 226.707 262.957C226.707 266.619 229.676 269.588 233.338 269.588Z" stroke="url(#paint7_linear_46_20756)" stroke-width="0.985" stroke-miterlimit="10"/>
<defs>
<linearGradient id="paint0_linear_46_20756" x1="-381.191" y1="475.519" x2="-0.389647" y2="-22.9832" gradientUnits="userSpaceOnUse">
<stop stop-color="#7FACD6"/>
<stop offset="1" stop-color="#E9B7D4"/>
</linearGradient>
<linearGradient id="paint1_linear_46_20756" x1="-165.8" y1="191.68" x2="214.464" y2="336.192" gradientUnits="userSpaceOnUse">
<stop offset="2.54313e-07" stop-color="#E9B7D4"/>
<stop offset="1" stop-color="#7FACD6"/>
</linearGradient>
<linearGradient id="paint2_linear_46_20756" x1="98.3944" y1="69.9957" x2="142.65" y2="19.7703" gradientUnits="userSpaceOnUse">
<stop stop-color="#7FACD6"/>
<stop offset="1" stop-color="#E9B7D4"/>
</linearGradient>
<linearGradient id="paint3_linear_46_20756" x1="155.664" y1="35.3239" x2="173.946" y2="14.5751" gradientUnits="userSpaceOnUse">
<stop stop-color="#7FACD6"/>
<stop offset="1" stop-color="#E9B7D4"/>
</linearGradient>
<linearGradient id="paint4_linear_46_20756" x1="143.102" y1="9.54722" x2="150.225" y2="1.46386" gradientUnits="userSpaceOnUse">
<stop stop-color="#7FACD6"/>
<stop offset="1" stop-color="#E9B7D4"/>
</linearGradient>
<linearGradient id="paint5_linear_46_20756" x1="173.762" y1="266.196" x2="210.461" y2="240.69" gradientUnits="userSpaceOnUse">
<stop stop-color="#7FACD6"/>
<stop offset="1" stop-color="#E9B7D4"/>
</linearGradient>
<linearGradient id="paint6_linear_46_20756" x1="211.772" y1="289.27" x2="223.372" y2="274.028" gradientUnits="userSpaceOnUse">
<stop stop-color="#7FACD6"/>
<stop offset="1" stop-color="#E9B7D4"/>
</linearGradient>
<linearGradient id="paint7_linear_46_20756" x1="228.985" y1="268.746" x2="237.873" y2="257.069" gradientUnits="userSpaceOnUse">
<stop stop-color="#7FACD6"/>
<stop offset="1" stop-color="#E9B7D4"/>
</linearGradient>
</defs>
</svg>
