<svg xmlns="http://www.w3.org/2000/svg" width="31" height="31" viewBox="0 0 31 31" fill="none">
    <path d="M12.9366 22.7618V25.7666C12.9366 27.1841 14.0857 28.3332 15.5033 28.3332C16.9208 28.3332 18.0699 27.1841 18.0699 25.7666V22.7618M15.5033 2.66656V3.9499M3.95326 15.4999H2.66992M7.16159 7.15823L6.39146 6.38811M23.8449 7.15823L24.6152 6.38811M28.3366 15.4999H27.0533M23.2033 15.4999C23.2033 19.7525 19.7558 23.1999 15.5033 23.1999C11.2507 23.1999 7.80326 19.7525 7.80326 15.4999C7.80326 11.2473 11.2507 7.7999 15.5033 7.7999C19.7558 7.7999 23.2033 11.2473 23.2033 15.4999Z" stroke="#05101B" stroke-width="2" stroke-linecap="round" stroke-linejoin="round"/>
</svg>