<svg xmlns="http://www.w3.org/2000/svg" width="31" height="31" viewBox="0 0 31 31" fill="none">
    <path d="M27.0531 27.0499H6.00646C5.28772 27.0499 4.92836 27.0499 4.65384 26.91C4.41236 26.787 4.21604 26.5907 4.093 26.3492C3.95312 26.0747 3.95312 25.7153 3.95312 24.9966V3.94989M27.0531 9.08322L20.0791 16.0573C19.825 16.3114 19.6979 16.4384 19.5514 16.486C19.4225 16.5279 19.2837 16.5279 19.1548 16.486C19.0083 16.4384 18.8813 16.3114 18.6272 16.0573L16.2291 13.6592C15.975 13.4051 15.8479 13.278 15.7014 13.2304C15.5725 13.1885 15.4337 13.1885 15.3048 13.2304C15.1583 13.278 15.0313 13.4051 14.7772 13.6592L9.08646 19.3499M27.0531 9.08322H21.9198M27.0531 9.08322V14.2166" stroke="#05101B" stroke-width="2" stroke-linecap="round" stroke-linejoin="round"/>
</svg>